<svg width="50" height="50" viewBox="0 0 50 50" fill="none" xmlns="http://www.w3.org/2000/svg"><rect width="50" height="50" fill="#272427"></rect><path d="M4.75003 11.1192C4.10799 11.1192 3.56111 10.9445 3.10941 10.5951C2.6577 10.2428 2.31253 9.73287 2.0739 9.06525C1.83526 8.3948 1.71594 7.58514 1.71594 6.63628C1.71594 5.69309 1.83526 4.8877 2.0739 4.22008C2.31537 3.54963 2.66197 3.03826 3.11367 2.68599C3.56822 2.33088 4.11367 2.15332 4.75003 2.15332C5.3864 2.15332 5.93043 2.33088 6.38214 2.68599C6.83668 3.03826 7.18327 3.54963 7.42191 4.22008C7.66339 4.8877 7.78412 5.69309 7.78412 6.63628C7.78412 7.58514 7.66481 8.3948 7.42617 9.06525C7.18753 9.73287 6.84236 10.2428 6.39066 10.5951C5.93895 10.9445 5.39208 11.1192 4.75003 11.1192ZM4.75003 10.1817C5.3864 10.1817 5.88072 9.87491 6.23299 9.26128C6.58526 8.64764 6.7614 7.77264 6.7614 6.63628C6.7614 5.88059 6.68043 5.23713 6.5185 4.70588C6.35941 4.17463 6.12929 3.7698 5.82816 3.49139C5.52986 3.21298 5.17049 3.07378 4.75003 3.07378C4.11935 3.07378 3.62645 3.38485 3.27134 4.00701C2.91623 4.62633 2.73867 5.50275 2.73867 6.63628C2.73867 7.39196 2.81822 8.034 2.97731 8.56241C3.1364 9.09082 3.36509 9.49281 3.66339 9.76838C3.96452 10.0439 4.32674 10.1817 4.75003 10.1817Z" fill="#353136"></path><path d="M24.75 11.1192C24.108 11.1192 23.5611 10.9445 23.1094 10.5951C22.6577 10.2428 22.3125 9.73287 22.0739 9.06525C21.8353 8.3948 21.7159 7.58514 21.7159 6.63628C21.7159 5.69309 21.8353 4.8877 22.0739 4.22008C22.3154 3.54963 22.662 3.03826 23.1137 2.68599C23.5682 2.33088 24.1137 2.15332 24.75 2.15332C25.3864 2.15332 25.9304 2.33088 26.3821 2.68599C26.8367 3.03826 27.1833 3.54963 27.4219 4.22008C27.6634 4.8877 27.7841 5.69309 27.7841 6.63628C27.7841 7.58514 27.6648 8.3948 27.4262 9.06525C27.1875 9.73287 26.8424 10.2428 26.3907 10.5951C25.939 10.9445 25.3921 11.1192 24.75 11.1192ZM24.75 10.1817C25.3864 10.1817 25.8807 9.87491 26.233 9.26128C26.5853 8.64764 26.7614 7.77264 26.7614 6.63628C26.7614 5.88059 26.6804 5.23713 26.5185 4.70588C26.3594 4.17463 26.1293 3.7698 25.8282 3.49139C25.5299 3.21298 25.1705 3.07378 24.75 3.07378C24.1194 3.07378 23.6265 3.38485 23.2713 4.00701C22.9162 4.62633 22.7387 5.50275 22.7387 6.63628C22.7387 7.39196 22.8182 8.034 22.9773 8.56241C23.1364 9.09082 23.3651 9.49281 23.6634 9.76838C23.9645 10.0439 24.3267 10.1817 24.75 10.1817Z" fill="#3B383C"></path><path d="M43.75 11.1192C43.108 11.1192 42.5611 10.9445 42.1094 10.5951C41.6577 10.2428 41.3125 9.73287 41.0739 9.06525C40.8353 8.3948 40.7159 7.58514 40.7159 6.63628C40.7159 5.69309 40.8353 4.8877 41.0739 4.22008C41.3154 3.54963 41.662 3.03826 42.1137 2.68599C42.5682 2.33088 43.1137 2.15332 43.75 2.15332C44.3864 2.15332 44.9304 2.33088 45.3821 2.68599C45.8367 3.03826 46.1833 3.54963 46.4219 4.22008C46.6634 4.8877 46.7841 5.69309 46.7841 6.63628C46.7841 7.58514 46.6648 8.3948 46.4262 9.06525C46.1875 9.73287 45.8424 10.2428 45.3907 10.5951C44.939 10.9445 44.3921 11.1192 43.75 11.1192ZM43.75 10.1817C44.3864 10.1817 44.8807 9.87491 45.233 9.26128C45.5853 8.64764 45.7614 7.77264 45.7614 6.63628C45.7614 5.88059 45.6804 5.23713 45.5185 4.70588C45.3594 4.17463 45.1293 3.7698 44.8282 3.49139C44.5299 3.21298 44.1705 3.07378 43.75 3.07378C43.1194 3.07378 42.6265 3.38485 42.2713 4.00701C41.9162 4.62633 41.7387 5.50275 41.7387 6.63628C41.7387 7.39196 41.8182 8.034 41.9773 8.56241C42.1364 9.09082 42.3651 9.49281 42.6634 9.76838C42.9645 10.0439 43.3267 10.1817 43.75 10.1817Z" fill="#423C42"></path><path d="M15.9717 2.27246V10.9997H14.9149V3.38042H14.8637L12.733 4.79519V3.72132L14.9149 2.27246H15.9717Z" fill="#363339"></path><path d="M34.9717 2.27246V10.9997H33.9149V3.38042H33.8637L31.733 4.79519V3.72132L33.9149 2.27246H34.9717Z" fill="#363339"></path><path d="M4.75003 23.1192C4.10799 23.1192 3.56111 22.9445 3.10941 22.5951C2.6577 22.2428 2.31253 21.7329 2.0739 21.0653C1.83526 20.3948 1.71594 19.5851 1.71594 18.6363C1.71594 17.6931 1.83526 16.8877 2.0739 16.2201C2.31537 15.5496 2.66197 15.0383 3.11367 14.686C3.56822 14.3309 4.11367 14.1533 4.75003 14.1533C5.3864 14.1533 5.93043 14.3309 6.38214 14.686C6.83668 15.0383 7.18327 15.5496 7.42191 16.2201C7.66339 16.8877 7.78412 17.6931 7.78412 18.6363C7.78412 19.5851 7.66481 20.3948 7.42617 21.0653C7.18753 21.7329 6.84236 22.2428 6.39066 22.5951C5.93895 22.9445 5.39208 23.1192 4.75003 23.1192ZM4.75003 22.1817C5.3864 22.1817 5.88072 21.8749 6.23299 21.2613C6.58526 20.6476 6.7614 19.7726 6.7614 18.6363C6.7614 17.8806 6.68043 17.2371 6.5185 16.7059C6.35941 16.1746 6.12929 15.7698 5.82816 15.4914C5.52986 15.213 5.17049 15.0738 4.75003 15.0738C4.11935 15.0738 3.62645 15.3849 3.27134 16.007C2.91623 16.6263 2.73867 17.5028 2.73867 18.6363C2.73867 19.392 2.81822 20.034 2.97731 20.5624C3.1364 21.0908 3.36509 21.4928 3.66339 21.7684C3.96452 22.0439 4.32674 22.1817 4.75003 22.1817Z" fill="#39383D"></path><path d="M24.75 23.1192C24.108 23.1192 23.5611 22.9445 23.1094 22.5951C22.6577 22.2428 22.3125 21.7329 22.0739 21.0653C21.8353 20.3948 21.7159 19.5851 21.7159 18.6363C21.7159 17.6931 21.8353 16.8877 22.0739 16.2201C22.3154 15.5496 22.662 15.0383 23.1137 14.686C23.5682 14.3309 24.1137 14.1533 24.75 14.1533C25.3864 14.1533 25.9304 14.3309 26.3821 14.686C26.8367 15.0383 27.1833 15.5496 27.4219 16.2201C27.6634 16.8877 27.7841 17.6931 27.7841 18.6363C27.7841 19.5851 27.6648 20.3948 27.4262 21.0653C27.1875 21.7329 26.8424 22.2428 26.3907 22.5951C25.939 22.9445 25.3921 23.1192 24.75 23.1192ZM24.75 22.1817C25.3864 22.1817 25.8807 21.8749 26.233 21.2613C26.5853 20.6476 26.7614 19.7726 26.7614 18.6363C26.7614 17.8806 26.6804 17.2371 26.5185 16.7059C26.3594 16.1746 26.1293 15.7698 25.8282 15.4914C25.5299 15.213 25.1705 15.0738 24.75 15.0738C24.1194 15.0738 23.6265 15.3849 23.2713 16.007C22.9162 16.6263 22.7387 17.5028 22.7387 18.6363C22.7387 19.392 22.8182 20.034 22.9773 20.5624C23.1364 21.0908 23.3651 21.4928 23.6634 21.7684C23.9645 22.0439 24.3267 22.1817 24.75 22.1817Z" fill="#423D43"></path><path d="M34.75 23.1192C34.108 23.1192 33.5611 22.9445 33.1094 22.5951C32.6577 22.2428 32.3125 21.7329 32.0739 21.0653C31.8353 20.3948 31.7159 19.5851 31.7159 18.6363C31.7159 17.6931 31.8353 16.8877 32.0739 16.2201C32.3154 15.5496 32.662 15.0383 33.1137 14.686C33.5682 14.3309 34.1137 14.1533 34.75 14.1533C35.3864 14.1533 35.9304 14.3309 36.3821 14.686C36.8367 15.0383 37.1833 15.5496 37.4219 16.2201C37.6634 16.8877 37.7841 17.6931 37.7841 18.6363C37.7841 19.5851 37.6648 20.3948 37.4262 21.0653C37.1875 21.7329 36.8424 22.2428 36.3907 22.5951C35.939 22.9445 35.3921 23.1192 34.75 23.1192ZM34.75 22.1817C35.3864 22.1817 35.8807 21.8749 36.233 21.2613C36.5853 20.6476 36.7614 19.7726 36.7614 18.6363C36.7614 17.8806 36.6804 17.2371 36.5185 16.7059C36.3594 16.1746 36.1293 15.7698 35.8282 15.4914C35.5299 15.213 35.1705 15.0738 34.75 15.0738C34.1194 15.0738 33.6265 15.3849 33.2713 16.007C32.9162 16.6263 32.7387 17.5028 32.7387 18.6363C32.7387 19.392 32.8182 20.034 32.9773 20.5624C33.1364 21.0908 33.3651 21.4928 33.6634 21.7684C33.9645 22.0439 34.3267 22.1817 34.75 22.1817Z" fill="#3F3940"></path><path d="M15.9717 14.2725V22.9997H14.9149V15.3804H14.8637L12.733 16.7952V15.7213L14.9149 14.2725H15.9717Z" fill="#363339"></path><path d="M44.9717 14.2725V22.9997H43.9149V15.3804H43.8637L41.733 16.7952V15.7213L43.9149 14.2725H44.9717Z" fill="#4D454C"></path><path d="M14.75 35.1192C14.108 35.1192 13.5611 34.9445 13.1094 34.5951C12.6577 34.2428 12.3125 33.7329 12.0739 33.0653C11.8353 32.3948 11.7159 31.5851 11.7159 30.6363C11.7159 29.6931 11.8353 28.8877 12.0739 28.2201C12.3154 27.5496 12.662 27.0383 13.1137 26.686C13.5682 26.3309 14.1137 26.1533 14.75 26.1533C15.3864 26.1533 15.9304 26.3309 16.3821 26.686C16.8367 27.0383 17.1833 27.5496 17.4219 28.2201C17.6634 28.8877 17.7841 29.6931 17.7841 30.6363C17.7841 31.5851 17.6648 32.3948 17.4262 33.0653C17.1875 33.7329 16.8424 34.2428 16.3907 34.5951C15.939 34.9445 15.3921 35.1192 14.75 35.1192ZM14.75 34.1817C15.3864 34.1817 15.8807 33.8749 16.233 33.2613C16.5853 32.6476 16.7614 31.7726 16.7614 30.6363C16.7614 29.8806 16.6804 29.2371 16.5185 28.7059C16.3594 28.1746 16.1293 27.7698 15.8282 27.4914C15.5299 27.213 15.1705 27.0738 14.75 27.0738C14.1194 27.0738 13.6265 27.3849 13.2713 28.007C12.9162 28.6263 12.7387 29.5028 12.7387 30.6363C12.7387 31.392 12.8182 32.034 12.9773 32.5624C13.1364 33.0908 13.3651 33.4928 13.6634 33.7684C13.9645 34.0439 14.3267 34.1817 14.75 34.1817Z" fill="#454247"></path><path d="M24.75 35.1192C24.108 35.1192 23.5611 34.9445 23.1094 34.5951C22.6577 34.2428 22.3125 33.7329 22.0739 33.0653C21.8353 32.3948 21.7159 31.5851 21.7159 30.6363C21.7159 29.6931 21.8353 28.8877 22.0739 28.2201C22.3154 27.5496 22.662 27.0383 23.1137 26.686C23.5682 26.3309 24.1137 26.1533 24.75 26.1533C25.3864 26.1533 25.9304 26.3309 26.3821 26.686C26.8367 27.0383 27.1833 27.5496 27.4219 28.2201C27.6634 28.8877 27.7841 29.6931 27.7841 30.6363C27.7841 31.5851 27.6648 32.3948 27.4262 33.0653C27.1875 33.7329 26.8424 34.2428 26.3907 34.5951C25.939 34.9445 25.3921 35.1192 24.75 35.1192ZM24.75 34.1817C25.3864 34.1817 25.8807 33.8749 26.233 33.2613C26.5853 32.6476 26.7614 31.7726 26.7614 30.6363C26.7614 29.8806 26.6804 29.2371 26.5185 28.7059C26.3594 28.1746 26.1293 27.7698 25.8282 27.4914C25.5299 27.213 25.1705 27.0738 24.75 27.0738C24.1194 27.0738 23.6265 27.3849 23.2713 28.007C22.9162 28.6263 22.7387 29.5028 22.7387 30.6363C22.7387 31.392 22.8182 32.034 22.9773 32.5624C23.1364 33.0908 23.3651 33.4928 23.6634 33.7684C23.9645 34.0439 24.3267 34.1817 24.75 34.1817Z" fill="#403A41"></path><path d="M44.75 35.1192C44.108 35.1192 43.5611 34.9445 43.1094 34.5951C42.6577 34.2428 42.3125 33.7329 42.0739 33.0653C41.8353 32.3948 41.7159 31.5851 41.7159 30.6363C41.7159 29.6931 41.8353 28.8877 42.0739 28.2201C42.3154 27.5496 42.662 27.0383 43.1137 26.686C43.5682 26.3309 44.1137 26.1533 44.75 26.1533C45.3864 26.1533 45.9304 26.3309 46.3821 26.686C46.8367 27.0383 47.1833 27.5496 47.4219 28.2201C47.6634 28.8877 47.7841 29.6931 47.7841 30.6363C47.7841 31.5851 47.6648 32.3948 47.4262 33.0653C47.1875 33.7329 46.8424 34.2428 46.3907 34.5951C45.939 34.9445 45.3921 35.1192 44.75 35.1192ZM44.75 34.1817C45.3864 34.1817 45.8807 33.8749 46.233 33.2613C46.5853 32.6476 46.7614 31.7726 46.7614 30.6363C46.7614 29.8806 46.6804 29.2371 46.5185 28.7059C46.3594 28.1746 46.1293 27.7698 45.8282 27.4914C45.5299 27.213 45.1705 27.0738 44.75 27.0738C44.1194 27.0738 43.6265 27.3849 43.2713 28.007C42.9162 28.6263 42.7387 29.5028 42.7387 30.6363C42.7387 31.392 42.8182 32.034 42.9773 32.5624C43.1364 33.0908 43.3651 33.4928 43.6634 33.7684C43.9645 34.0439 44.3267 34.1817 44.75 34.1817Z" fill="#3F3940"></path><path d="M5.97155 26.2725V34.9997H4.91473V27.3804H4.86359L2.73291 28.7952V27.7213L4.91473 26.2725H5.97155Z" fill="#363339"></path><path d="M34.9715 26.2725V34.9997H33.9147V27.3804H33.8636L31.7329 28.7952V27.7213L33.9147 26.2725H34.9715Z" fill="#363339"></path><path d="M14.75 48.1192C14.108 48.1192 13.5611 47.9445 13.1094 47.5951C12.6577 47.2428 12.3125 46.7329 12.0739 46.0653C11.8353 45.3948 11.7159 44.5851 11.7159 43.6363C11.7159 42.6931 11.8353 41.8877 12.0739 41.2201C12.3154 40.5496 12.662 40.0383 13.1137 39.686C13.5682 39.3309 14.1137 39.1533 14.75 39.1533C15.3864 39.1533 15.9304 39.3309 16.3821 39.686C16.8367 40.0383 17.1833 40.5496 17.4219 41.2201C17.6634 41.8877 17.7841 42.6931 17.7841 43.6363C17.7841 44.5851 17.6648 45.3948 17.4262 46.0653C17.1875 46.7329 16.8424 47.2428 16.3907 47.5951C15.939 47.9445 15.3921 48.1192 14.75 48.1192ZM14.75 47.1817C15.3864 47.1817 15.8807 46.8749 16.233 46.2613C16.5853 45.6476 16.7614 44.7726 16.7614 43.6363C16.7614 42.8806 16.6804 42.2371 16.5185 41.7059C16.3594 41.1746 16.1293 40.7698 15.8282 40.4914C15.5299 40.213 15.1705 40.0738 14.75 40.0738C14.1194 40.0738 13.6265 40.3849 13.2713 41.007C12.9162 41.6263 12.7387 42.5028 12.7387 43.6363C12.7387 44.392 12.8182 45.034 12.9773 45.5624C13.1364 46.0908 13.3651 46.4928 13.6634 46.7684C13.9645 47.0439 14.3267 47.1817 14.75 47.1817Z" fill="#403A40"></path><path d="M24.75 48.1192C24.108 48.1192 23.5611 47.9445 23.1094 47.5951C22.6577 47.2428 22.3125 46.7329 22.0739 46.0653C21.8353 45.3948 21.7159 44.5851 21.7159 43.6363C21.7159 42.6931 21.8353 41.8877 22.0739 41.2201C22.3154 40.5496 22.662 40.0383 23.1137 39.686C23.5682 39.3309 24.1137 39.1533 24.75 39.1533C25.3864 39.1533 25.9304 39.3309 26.3821 39.686C26.8367 40.0383 27.1833 40.5496 27.4219 41.2201C27.6634 41.8877 27.7841 42.6931 27.7841 43.6363C27.7841 44.5851 27.6648 45.3948 27.4262 46.0653C27.1875 46.7329 26.8424 47.2428 26.3907 47.5951C25.939 47.9445 25.3921 48.1192 24.75 48.1192ZM24.75 47.1817C25.3864 47.1817 25.8807 46.8749 26.233 46.2613C26.5853 45.6476 26.7614 44.7726 26.7614 43.6363C26.7614 42.8806 26.6804 42.2371 26.5185 41.7059C26.3594 41.1746 26.1293 40.7698 25.8282 40.4914C25.5299 40.213 25.1705 40.0738 24.75 40.0738C24.1194 40.0738 23.6265 40.3849 23.2713 41.007C22.9162 41.6263 22.7387 42.5028 22.7387 43.6363C22.7387 44.392 22.8182 45.034 22.9773 45.5624C23.1364 46.0908 23.3651 46.4928 23.6634 46.7684C23.9645 47.0439 24.3267 47.1817 24.75 47.1817Z" fill="#464147"></path><path d="M34.75 48.1192C34.108 48.1192 33.5611 47.9445 33.1094 47.5951C32.6577 47.2428 32.3125 46.7329 32.0739 46.0653C31.8353 45.3948 31.7159 44.5851 31.7159 43.6363C31.7159 42.6931 31.8353 41.8877 32.0739 41.2201C32.3154 40.5496 32.662 40.0383 33.1137 39.686C33.5682 39.3309 34.1137 39.1533 34.75 39.1533C35.3864 39.1533 35.9304 39.3309 36.3821 39.686C36.8367 40.0383 37.1833 40.5496 37.4219 41.2201C37.6634 41.8877 37.7841 42.6931 37.7841 43.6363C37.7841 44.5851 37.6648 45.3948 37.4262 46.0653C37.1875 46.7329 36.8424 47.2428 36.3907 47.5951C35.939 47.9445 35.3921 48.1192 34.75 48.1192ZM34.75 47.1817C35.3864 47.1817 35.8807 46.8749 36.233 46.2613C36.5853 45.6476 36.7614 44.7726 36.7614 43.6363C36.7614 42.8806 36.6804 42.2371 36.5185 41.7059C36.3594 41.1746 36.1293 40.7698 35.8282 40.4914C35.5299 40.213 35.1705 40.0738 34.75 40.0738C34.1194 40.0738 33.6265 40.3849 33.2713 41.007C32.9162 41.6263 32.7387 42.5028 32.7387 43.6363C32.7387 44.392 32.8182 45.034 32.9773 45.5624C33.1364 46.0908 33.3651 46.4928 33.6634 46.7684C33.9645 47.0439 34.3267 47.1817 34.75 47.1817Z" fill="#454046"></path><path d="M5.97155 39.2725V47.9997H4.91473V40.3804H4.86359L2.73291 41.7952V40.7213L4.91473 39.2725H5.97155Z" fill="#363339"></path><path d="M44.9715 39.2725V47.9997H43.9147V40.3804H43.8636L41.7329 41.7952V40.7213L43.9147 39.2725H44.9715Z" fill="#363339"></path></svg>